<svg xmlns="http://www.w3.org/2000/svg" width="256" height="256" fill="none" viewBox="0 0 256 256">
<!-- SVG created with Arrow, by QuiverAI (https://quiver.ai) -->
  <path d="m252.7 46.38v163.2c0 23.06-18.84 41.89-41.9 41.89h-167.1c-22.28 0-40.48-18.8-40.48-41.89v-163.2c0-22.28 18.2-41.41 40.48-41.41h167.1c22.7 0 41.9 19.13 41.9 41.41z" fill="url(#paint0_linear_331_2170)"/>
  <path d="m236 66.11v110.4c2.99 2.44 5.78 6.34 5.78 11.04v34.48c0 9.57-7.93 16.69-15.83 16.69l-213.7-1.67c7.73 8.9 18.69 14.5 31.52 14.5h167.1c22.7 0 41.9-19.13 41.9-41.89v-163.2c0-9.44-3.9-18.67-9.73-25.66 3.1 6.23-7.03 38.39-7.03 45.39z" fill="#000405" opacity=".1"/>
  <path d="m235.1 66.42v107.7s0.02 0.01 0.03 0.01c-4.3-1.92-7.31-6.17-7.31-11.17v-97.94c0-8.42-6.1-16.83-12.2-16.83h-90.9v-6.99l-8.3-10c0-6.1-4.1-11-10.2-11h-75c-6.5 0-11 5.8-11 11v76.49c0 4.9 3.2 9 7 10.6v55.83h-23.93v6l224.4 1v-7h7.38v-107.7z" fill="#000405" opacity=".1"/>
  <path d="m19.71 30.72v76.99c0 6.5 5.5 11 11 11h74c5 0 9-4.5 9-9.5v-77.99c0-6.1-4.5-10.5-9.5-10.5h-74.5c-6 0-10 5-10 10z" fill="url(#paint1_linear_331_2170)"/>
  <path d="m104.2 23.72h-73.5c-4.25 0-7.5 3.86-7.5 7.5v76.49c0 1.96 0.72 3.67 1.86 5.01-0.28-0.95-0.86-1.94-0.86-3.01v-76.49c0-4.24 3.25-7.5 6.5-7.5h73.5c4.81 0 6.97 3.59 7.41 8.09 0.44-5.35-2.6-10.09-7.41-10.09z" fill="url(#paint2_linear_331_2170)"/>
  <path d="m32.78 34.32 1.61-1.61c0.68-0.68 1.8-0.68 2.48 0l1.12 1.12c0.68 0.68 0.68 1.8 0 2.48l-1.12 1.12c-0.68 0.68-1.8 0.68-2.48 0l-1.61-1.61c-0.67-0.67-0.67-1.82 0-1.5z" fill="#80D25B"/>
  <path d="m30.21 43.72 5.1-5.1 1.8 1.8c0.78 0.78 0.68 2.1-0.4 2.5l-6.5 1.3v-0.5z" fill="#80D25B"/>
  <path d="m42.71 33.42 1.5-1.3h4.5l4 4c0.9 0.9 0.9 2.3 0 3.1l-5 5h-5.5l5.6-5.6-5.1-5.2z" fill="#80D25B"/>
  <path d="m54.21 35.22 1.5-1 6 4c0.8 0.4 0.9 1.5 0.2 2.1l-5.2 4.6-3-0.2 6.2-5.5-5.7-4z" fill="#80D25B"/>
  <path d="m216.6 46.71h-173.5c-9.2 0-16.9 8.1-16.9 16v111.4h206.5v-111.4c0-8.4-7.1-16-16.1-16z" fill="url(#paint3_linear_331_2170)"/>
  <path d="m225.7 61.21v109.4h-193.5v-109.4c0-6.5 5-10 10-10h173.5c6.5 0 10 5 10 10z" fill="url(#paint4_linear_331_2170)"/>
  <path d="m217.7 73.21h-176.5c-1.1 0-2 1.1-2 2.1v87.33c0 1.5 1.1 2.5 2.2 2.5h176c1.3 0 1.8-1.2 1.8-2.2v-87.73c0-1.1-0.7-2-1.5-2z" fill="url(#paint5_linear_331_2170)"/>
  <path d="m215.7 78.21h-171.5c-1.5 0-2 1.1-2 2.1v80.33c0 1.3 0.7 2 1.5 2h172.5c1 0 1.5-1 1.5-1.9v-80.53c0-1.2-0.7-2-2-2z" fill="url(#paint6_linear_331_2170)"/>
  <path d="m46.71 65.71c2.93 0 3.5-2.2 3.5-3.5 0-2.8-2.1-4-3.5-4-2.4 0-3.5 1.9-3.5 3.5 0 2.2 1.5 4 3.5 4z" fill="url(#paint7_linear_331_2170)"/>
  <path d="m60.21 65.71c2.93 0 3.5-2.2 3.5-3.5 0-2.8-2.1-4-3.5-4-2.4 0-3.5 1.9-3.5 3.5 0 2.2 1.5 4 3.5 4z" fill="#80D25B"/>
  <path d="m72.21 65.71c2.93 0 3.5-2.2 3.5-3.5 0-2.8-2.1-4-3.5-4-2.4 0-3.5 1.9-3.5 3.5 0 2.2 1.5 4 3.5 4z" fill="url(#paint8_linear_331_2170)"/>
  <path d="m190.2 65.71c2.93 0 3.5-2.2 3.5-3.5 0-2.8-2.1-4-3.5-4-2.4 0-3.5 1.9-3.5 3.5 0 2.2 1.5 4 3.5 4z" fill="url(#paint9_linear_331_2170)"/>
  <path d="m200.7 65.71c2.93 0 3.5-2.2 3.5-3.5 0-2.8-2.1-4-3.5-4-2.4 0-3.5 1.9-3.5 3.5 0 2.2 1.5 4 3.5 4z" fill="url(#paint10_linear_331_2170)"/>
  <path d="m212.2 65.71c2.93 0 3.5-2.2 3.5-3.5 0-2.8-2.1-4-3.5-4-2.4 0-3.5 1.9-3.5 3.5 0 2.2 1.5 4 3.5 4z" fill="url(#paint11_linear_331_2170)"/>
  <path d="m239.7 185.5v35.98c0 8.4-7.03 15.19-15.03 15.19l-214.5-1.67c-4.3-6.2-6.96-13.7-6.96-21.89v-41.98l223.4 1c7.5 0 13.03 6.37 13.03 13.37z" fill="#000405" opacity=".1"/>
  <path d="m240.7 185v35.98c0 8.4-7.03 15.19-15.03 15.19h-213.5c-5.5-6.17-8.96-14.87-8.96-23.56v-41.48l223.4 1c8 0 14.03 5.87 14.03 12.87z" fill="url(#paint12_linear_331_2170)"/>
  <path d="m226.2 175.1-221.9 1v-3l221.9-1c7.5 0 13.03 5.37 13.03 12.87v3c0-7-5.53-12.87-13.03-12.87z" fill="url(#paint13_linear_331_2170)"/>
  <path d="m225.2 232.2-215 0.33c0.9 1.2 1.23 1.9 2 2.67h213.5c8 0 14.03-6.79 14.03-14.19v-2c0 7.32-6.53 13.19-14.53 13.19z" fill="url(#paint14_linear_331_2170)"/>
  <path d="m91.86 216.5c-7.04 0-9.78-2.41-10.43-7.31l6.68-0.5c0.41 2.22 1.51 3.37 4.4 3.37 2.6 0 3.88-0.89 3.88-2.56 0-1.46-1.1-2.2-4.66-2.81-6.55-1.19-9.1-3.04-9.1-7.1 0-4.3 3.18-5.93 9.01-5.93 6.28 0 9.08 2.08 9.77 6.7l-5.9 0.5c-0.45-2.13-1.6-3.01-4-3.01-2.18 0-3.29 0.79-3.29 2.16 0 1.32 0.8 2.25 4.86 2.99 6.9 1.37 9.3 2.95 9.3 7.1 0 4.3-3.77 6.4-10.52 6.4z" fill="#fff"/>
  <path d="m106.8 185.7h6.28v11.98h0.22c1.41-2.68 3.63-4.01 6.9-4.01 5.87 0 8 3.43 8 8.51v13.93h-6.68v-12.7c0-2.95-1.06-4.5-3.86-4.5-3.39 0-4.58 2.3-4.58 4.89v12.31h-6.28v-30.41z" fill="#fff"/>
  <path d="m131.2 211.2h5.41v-12.36h-4.9v-4.62h11.19v16.98h4.06v4.93h-15.76v-4.93zm8.01-19.4c-3.39 0-4.41-1.46-4.41-3.82 0-2.31 1.15-3.46 3.9-3.46 2.9 0 3.92 1.2 3.92 3.46 0 2.22-1.11 3.82-3.41 3.82z" fill="#fff"/>
  <path d="m156.4 212.9h-0.22v3.26h-6.19v-30.63h6.55v11.44h0.22c1.54-2.13 3.53-3.25 6.75-3.25 6.9 0 9.74 5.03 9.74 11.1 0 6.85-3.93 11.74-10.05 11.74-3.31 0-5.44-1.28-6.8-3.66zm5.19-14.55c-3.69 0-5.1 2.21-5.1 6.31v1.55c0 3.84 1.9 5.87 4.97 5.87 3.93 0 5.25-3.12 5.25-6.92 0-4.02-1.5-6.81-5.12-6.81z" fill="#fff"/>
  <path d="m176.5 211.2h5.41v-12.36h-4.9v-4.62h11.19v16.98h3.02v4.93h-14.72v-4.93zm7.71-19.4c-3.39 0-4.41-1.46-4.41-3.82 0-2.31 1.15-3.46 3.9-3.46 2.89 0 3.91 1.2 3.91 3.46 0 2.22-1.11 3.82-3.4 3.82z" fill="#fff"/>
  <path d="m195.2 185.7h6.54v17.92l8.49-9.42h7.88l-9.16 9.64 9.85 12.27h-7.76l-6.8-9.28-2.5 2.5v6.78h-6.54v-30.41z" fill="#fff"/>
  <path d="m28.78 189.5h12.3l13.7 13.7-13.7 12.7h-12.7l15-13.1-14.6-13.3z" fill="#80D25B"/>
  <path d="m54.78 194.5h5.5l7.5 8v0.5h-4l-9-8.5z" fill="#80D25B"/>
  <path d="m58.28 211-4.5 4.9h18v-4.9h-13.5z" fill="#80D25B"/>
  <path d="m195.4 110.4c0-16-14.2-29-32.7-29h-12c-2 0-3 1-3 2.5-4.5-2.5-10-3.5-16-3.5h-3c-17.5 0-32.5 10.5-39 24l-17.5-4.5c-3 0-4 2.5-3.5 5l2.5 4.5c-7.5 5-11 12-11 20 0 14.5 13 27 31 28h4c5.5 0 10.5-1 13-2 6 3.5 12.5 4.5 20 4.5h1.5c14 0 27-7.5 35.5-16.5l18.5-2c2.5-1 2.5-3.5 1-5l-2-2c8-5.5 12.7-14 12.7-24zm-104.7 35.5c-11.5-2.5-17.5-11.5-17.5-18 0-4.5 2-8.5 5.5-11l1.5 3c1 1.5 3.5 1.5 4.5-1l2-5c-0.5 3-1 6-1 9 0 8.5 2 16.5 6.5 23.5l-1.5-0.5zm85.7-23-2-2.5c-1-1.5-3.5-1.5-4.5 0.5 0.5-1.5 0.5-3 0.5-4.5 0-11.5-6-22-15-29 14.5 1.5 27.5 10 27.5 23 0 5-2.5 9.5-6.5 12.5z" fill="#3475BA" opacity=".1"/>
  <path d="m152.2 81.41c20 0 41 11 41 28.5 0 11.5-7.5 20-15 24.5l-3.5-5.5c6-3 10-10 10-18 0-14-13.5-24.5-33.5-26.5-2.5-0.5-2.5-3 1-3z" fill="#fff"/>
  <path d="m93.18 153.4c-18-1-31.5-12-31.5-26 0-9 4-15.5 11-20l-3-4c-1.5-2.5 0-4.4 2.5-4.5l15.5-1c2.5-0.5 3 1.5 2 4l-5.5 16c-1 2.5-3 2-4 0.5l-2.5-3c-3.5 2.5-5.5 7-5.5 12 0 9.5 9 20.5 24.5 22.5l9.5 1.5c2 0.5 1.5 1.5-0.5 1.5-3 0.5-7.5 1-12.5 0.5z" fill="#fff"/>
  <path d="m128.7 161.9c22.73 0 43-18.84 43-42.5 0-22.7-17.5-42.5-43-42.5-23.5 0-41 19.4-41 42.5 0 22.2 16 42.5 41 42.5z" fill="url(#paint15_linear_331_2170)"/>
  <path d="m128.7 156.9c20.79 0 37.7-18.03 37.7-38 0-21.3-16.2-38-37.7-38-21.3 0-36 17.1-36 38 0 19.9 15.1 38 36 38z" fill="url(#paint16_radial_331_2170)"/>
  <path d="m128.7 81.41c-20.4 0-35 16.7-35 37 0 9.5 4 18.5 10.5 25-5-6.5-8-13-8-21.5 0-19.5 13.5-36.5 33-37.5 15.5-0.5 27 9 33 21-6-13-16-24-33.5-24z" fill="#fff" opacity=".1"/>
  <path d="m107.2 88.41 3.5-1 1 1 2-0.5v-1.5l3-1 0.5 1.5-1 1 2 0.5 2-2 3-1 1.5-1 0.5 1-3 2-4.5 1.5-2.5 2-2-0.5-1.5 1-2-0.5-2.5-1.5v-1z" fill="#DCF1FF"/>
  <path d="m106.7 96.91 1-0.5v1l-1-0.5z" fill="#DCF1FF"/>
  <path d="m128.2 83.41 2.5 0.5 4.5-0.5 5.5 2-0.5 2-1 1 0.5 2.5-2 1.5-4.5 1-2.5 3.5-0.5-0.5-1 0.5-1-1.5v-4l2-2.5-1.5-1.5 1-2-1.5-1v-1z" fill="#DCF1FF"/>
  <path d="m138.2 94.41-1 1 1.5 1h1l-0.5-1.5-1-0.5z" fill="#DCF1FF"/>
  <path d="m149.2 93.41 1.5-1.5 2 3.5v2.5l-2.5 2-1.5-0.5-1.5 1.5-2-3.5 2.5-4.5 1.5-0.5v1z" fill="#DCF1FF"/>
  <path d="m143.7 97.91-1.5 1v1.5l1.5 0.5 1.5-1.5-1.5-1.5z" fill="#DCF1FF"/>
  <path d="m115.2 92.41 1.5 0.5 1-1.5 1.5-0.5 2 1.5-0.5 2.5-3 1.5-1.5 3.5-2-0.5-1-1v-2l2-2.5v-1.5z" fill="#DCF1FF"/>
  <path d="m121.2 91.41 2.5 1 1 3-2 2-1.5-2v-2l-1-0.5 1-1.5z" fill="#DCF1FF"/>
  <path d="m110.2 104.4-1.5 2 1 0.5 1.5-2.5h-1z" fill="#DCF1FF"/>
  <path d="m111.7 103.9 1-0.5 0.5 1-1.5 1v-1.5z" fill="#DCF1FF"/>
  <path d="m113.7 104.9 3.5-2.5h2.5l1-1 1.5 0.5 2.5-1-0.5 3-3.5 0.5-0.5-1-2 0.5-2 1.5-2.5 2-2 1.5-1.5 2v2.5l-2 1-4.5 1-2 2 0.5 3 1.5 1 2-1 1.5 1 0.5 2.5 2-0.5 2-1.5 2 1h2.5l1 1 3 0.5 2 4-1 1 2.5 1h3l4 1.5-1 3-2 2.5v2.5l-2.5 2-2 0.5-1.5 4-2.5 1.5v2.5l1 2-1 2-3.5-4-1.5-7-0.5-4-4.5-2.5-2.5-4 2-4-1.5-1.5-1-3-4-1.5-4.5-3.5-2-6 1-7 6-11 3.5-3 2 0.5 1.5-0.5 1.5 1-1 1.5 2-0.5 1-1 1.5 0.5-1 1.5-2 1v1.5l1 1 1-1v2.5l1.5 1 2-1 2 0.5 1.5-1.5 1.5 1.5-0.5 2-2.5 0.5-1 1.5h-2-2.5z" fill="#DCF1FF"/>
  <path d="m144.7 104.9 3-3.5 2-0.5 1.5 2 1.5 1.5 2-0.5 1 1-2.5 1-1.5-1.5-1.5 0.5 1 2.5h2.5l2.5 0.5 2 1.5-1 2-2-1.5-1.5-1-2.5-0.5-2-0.5-2 2-4 0.5-3 4v2.5l-1.5 2.5 0.5 3.5 3.5 3.5 4-1 1 1 2-0.5 1.5 2.5-1 5v6.5l1 3 2.5-2 7-13.5 4.5-7-0.5-6-2.5 2.5-1.5-3.5-0.5-2 2.5 3.5 1.5 0.5 1-1.5-0.5 3.5-2.5 3.5-2-2-1-4.5-2-2.5-1.5-1.5-2 0.5-2.5-1.5-2-1-2 1-2-0.5-0.5-1.5v-2.5z" fill="#DCF1FF"/>
  <path d="m161.2 136.9 9-17.5c1-2 3.5-1.5 4.5 0l9 15.5c1.5 2.5 1 4.5-2 4.5l-18 1.5c-3 0.5-3.5-2-2.5-4z" fill="#fff"/>
  <defs>
    <linearGradient id="paint0_linear_331_2170" x1="120.4" x2="132.7" y1="4.969" y2="256.1" gradientUnits="userSpaceOnUse">
      <stop stop-color="#76C0FD" offset="0"/>
      <stop stop-color="#1946E6" offset="1"/>
    </linearGradient>
    <linearGradient id="paint1_linear_331_2170" x1="66.71" x2="66.71" y1="20.72" y2="118.7" gradientUnits="userSpaceOnUse">
      <stop stop-color="#302F42" offset="0"/>
      <stop stop-color="#1B1A2A" offset="1"/>
    </linearGradient>
    <linearGradient id="paint2_linear_331_2170" x1="67.46" x2="67.46" y1="21.72" y2="113.2" gradientUnits="userSpaceOnUse">
      <stop stop-color="#484860" offset="0"/>
      <stop stop-color="#302F42" offset="1"/>
    </linearGradient>
    <linearGradient id="paint3_linear_331_2170" x1="129.5" x2="129.5" y1="46.71" y2="174.1" gradientUnits="userSpaceOnUse">
      <stop stop-color="#1A1A30" offset="0"/>
      <stop stop-color="#2A2941" offset="1"/>
    </linearGradient>
    <linearGradient id="paint4_linear_331_2170" x1="129" x2="129" y1="51.21" y2="170.6" gradientUnits="userSpaceOnUse">
      <stop stop-color="#FEFFFF" offset="0"/>
      <stop stop-color="#E6F0F6" offset="1"/>
    </linearGradient>
    <linearGradient id="paint5_linear_331_2170" x1="129.2" x2="129.2" y1="73.21" y2="165.1" gradientUnits="userSpaceOnUse">
      <stop stop-color="#324982" offset="0"/>
      <stop stop-color="#243664" offset="1"/>
    </linearGradient>
    <linearGradient id="paint6_linear_331_2170" x1="130" x2="130" y1="78.21" y2="162.6" gradientUnits="userSpaceOnUse">
      <stop stop-color="#5290E9" offset="0"/>
      <stop stop-color="#2758DB" offset="1"/>
    </linearGradient>
    <linearGradient id="paint7_linear_331_2170" x1="46.71" x2="46.71" y1="58.21" y2="65.71" gradientUnits="userSpaceOnUse">
      <stop stop-color="#CA393A" offset="0"/>
      <stop stop-color="#B32431" offset="1"/>
    </linearGradient>
    <linearGradient id="paint8_linear_331_2170" x1="72.21" x2="72.21" y1="58.21" y2="65.71" gradientUnits="userSpaceOnUse">
      <stop stop-color="#B1D0E5" offset="0"/>
      <stop stop-color="#91B4CC" offset="1"/>
    </linearGradient>
    <linearGradient id="paint9_linear_331_2170" x1="190.2" x2="190.2" y1="58.21" y2="65.71" gradientUnits="userSpaceOnUse">
      <stop stop-color="#91B4CC" offset="0"/>
      <stop stop-color="#6A90B7" offset="1"/>
    </linearGradient>
    <linearGradient id="paint10_linear_331_2170" x1="200.7" x2="200.7" y1="58.21" y2="65.71" gradientUnits="userSpaceOnUse">
      <stop stop-color="#6A90B7" offset="0"/>
      <stop stop-color="#395892" offset="1"/>
    </linearGradient>
    <linearGradient id="paint11_linear_331_2170" x1="212.2" x2="212.2" y1="58.21" y2="65.71" gradientUnits="userSpaceOnUse">
      <stop stop-color="#274092" offset="0"/>
      <stop stop-color="#102460" offset="1"/>
    </linearGradient>
    <linearGradient id="paint12_linear_331_2170" x1="122" x2="122" y1="171.1" y2="236.2" gradientUnits="userSpaceOnUse">
      <stop stop-color="#302F42" offset="0"/>
      <stop stop-color="#2A293E" offset="1"/>
    </linearGradient>
    <linearGradient id="paint13_linear_331_2170" x1="121.8" x2="121.8" y1="172.1" y2="177.1" gradientUnits="userSpaceOnUse">
      <stop stop-color="#484860" offset="0"/>
      <stop stop-color="#302F42" offset="1"/>
    </linearGradient>
    <linearGradient id="paint14_linear_331_2170" x1="125" x2="125" y1="219" y2="235.2" gradientUnits="userSpaceOnUse">
      <stop stop-color="#1B1A2A" offset="0"/>
      <stop stop-color="#1B1A2A" stop-opacity=".25" offset="1"/>
    </linearGradient>
    <radialGradient id="paint15_linear_331_2170" cx="0" cy="0" r="1" gradientTransform="translate(129.2 119.4) scale(41)" gradientUnits="userSpaceOnUse">
      <stop stop-color="#1B1A2A" offset="0"/>
      <stop stop-color="#2A2941" offset="1"/>
    </radialGradient>
    <radialGradient id="paint16_radial_331_2170" cx="0" cy="0" r="1" gradientTransform="translate(129.5 118.9) scale(36.85)" gradientUnits="userSpaceOnUse">
      <stop stop-color="#76C0FD" offset="0"/>
      <stop stop-color="#3475BA" offset="1"/>
    </radialGradient>
  </defs>
</svg>